<svg height="24px" viewBox="0 0 24 24" width="24px" xmlns="http://www.w3.org/2000/svg" class="svg-icon svg-icon--primary svg-icon--highlight">
	<g stroke="none" stroke-width="1" fill="none" fill-rule="evenodd">
		<path fill="#000000" opacity="0.2" d="M23.627.212C23.392.035 23.087-.021 22.804.06 21.718.372 20.334.284 18.582.172 17.485.102 
			16.241.023 14.813.023 13.694.023 12.688.516 12.001 1.296 11.313.516 10.308.023 9.189.023 7.761.023 6.517.102 5.42.172 
			3.668.284 2.284.372 1.198.06 .915-.021.61 .035.375 .212.14 .389.001 .666.001 .961V16.514C-.002 17.517.387 18.461 1.096 
			19.172S2.748 20.274 3.751 20.274H10.548C11.066 20.274 11.486 19.854 11.486 19.337S11.066 18.4 10.549 18.4H3.752C3.25 
			18.4 2.779 18.204 2.424 17.849 2.07 17.494 1.875 17.022 1.877 16.518V16.021C2.429 16.341 3.069 16.525 3.752 
			16.525H10.736C10.944 16.525 11.087 16.654 11.151 16.775 11.319 17.093 11.644 17.274 11.98 17.274 12.128 17.274 12.278 
			17.239 12.418 17.165 12.7 17.016 12.874 16.742 12.91 16.448 12.928 16.375 12.939 16.299 12.939 16.22V3.775C12.939 2.741 
			13.78 1.9 14.814 1.9 16.183 1.9 17.395 1.977 18.464 2.045 19.862 2.134 21.048 2.209 22.127 2.092V8.837C22.127 9.355 22.547 
			9.775 23.065 9.775S24.003 9.355 24.003 8.838V.963C24.003.669 23.865.391 23.63.214Z
			M3.75 14.648C2.716 14.648 1.875 13.807 1.875 12.773V2.09C2.953 2.207 4.139 2.132 5.537 2.043 6.607 1.975 
			7.818 1.898 9.187 1.898 10.221 1.898 11.062 2.739 11.062 3.773V14.671C10.954 14.656 10.845 14.648 10.734 14.648Z">
		</path>
		<path fill="#000000" opacity="0.7" d="M9.469 5.32C9.469 5.838 9.049 6.258 8.532 6.258H4.454C3.936 6.258 3.517 5.838 3.517 
			5.321S3.937 4.384 4.455 4.384H8.533C9.051 4.384 9.471 4.804 9.471 5.322Z
			M8.063 9.07C8.063 9.588 7.643 10.008 7.126 10.008H4.454C3.936 10.008 3.517 9.588 3.517 9.071S3.937 8.134 4.455 
			8.134H7.127C7.645 8.134 8.065 8.554 8.065 9.072Z">
		</path>
		<path fill="#000000" d="M19.2 11.956 14.053 17.092C13.944 17.201 13.863 17.336 13.818 17.483L12.697 21.173C12.598 21.5 12.684 
			21.856 12.923 22.1 13.102 22.283 13.345 22.383 13.594 22.383 13.677 22.383 13.762 22.372 13.844 22.349L17.628 21.301C17.784 
			21.258 17.926 21.175 18.04 21.061L23.176 15.935C24.272 14.838 24.272 13.054 23.176 11.957 22.079 10.86 20.295 10.86 19.199 11.956Z
			M16.89 19.559 14.986 20.086 15.543 18.252 19.016 14.787 20.342 16.113Z
			M21.851 14.607 21.669 14.788 20.343 13.462 20.524 13.281C20.889 12.915 21.484 12.915 21.85 13.281 22.216 13.646 22.216 
			14.241 21.851 14.606Z">
		</path>

	</g>
</svg>
