<?xml version="1.0" encoding="iso-8859-1"?>
<!-- Generator: Adobe Illustrator 17.1.0, SVG Export Plug-In . SVG Version: 6.00 Build 0)  -->
<!DOCTYPE svg PUBLIC "-//W3C//DTD SVG 1.1//EN" "http://www.w3.org/Graphics/SVG/1.1/DTD/svg11.dtd">
<svg version="1.1" id="Capa_1" xmlns="http://www.w3.org/2000/svg" xmlns:xlink="http://www.w3.org/1999/xlink" x="0px" y="0px"
	 viewBox="0 0 511 511" style="enable-background:new 0 0 511 511;" xml:space="preserve">
<g>
	<path d="M503.5,84h-24c-39.425,0-71.5,32.075-71.5,71.5V284H247.5c-36.892,0-67.344,28.087-71.105,64h-36.26l-5.927-11.854
		c-0.024-0.049-0.054-0.093-0.08-0.141c-0.068-0.129-0.139-0.255-0.215-0.38c-0.055-0.091-0.111-0.18-0.169-0.268
		c-0.076-0.115-0.156-0.226-0.238-0.337c-0.067-0.091-0.136-0.18-0.207-0.268c-0.081-0.099-0.165-0.194-0.251-0.289
		c-0.081-0.09-0.163-0.178-0.249-0.264c-0.084-0.084-0.172-0.165-0.26-0.246c-0.096-0.087-0.193-0.172-0.293-0.254
		c-0.086-0.07-0.174-0.137-0.264-0.204c-0.112-0.083-0.225-0.164-0.341-0.241c-0.086-0.057-0.174-0.112-0.263-0.166
		c-0.127-0.077-0.256-0.149-0.387-0.218c-0.047-0.025-0.09-0.054-0.138-0.078c-0.045-0.022-0.092-0.038-0.137-0.06
		c-0.128-0.061-0.258-0.117-0.389-0.171c-0.105-0.043-0.211-0.085-0.318-0.123c-0.116-0.041-0.234-0.078-0.352-0.114
		c-0.122-0.037-0.243-0.073-0.366-0.103c-0.108-0.027-0.218-0.049-0.328-0.07c-0.129-0.026-0.259-0.051-0.389-0.07
		c-0.112-0.016-0.226-0.027-0.339-0.038c-0.125-0.012-0.25-0.025-0.374-0.031c-0.126-0.006-0.251-0.006-0.378-0.006
		c-0.112,0-0.223,0-0.334,0.005c-0.138,0.006-0.275,0.02-0.413,0.034c-0.101,0.01-0.201,0.02-0.301,0.034
		c-0.141,0.02-0.281,0.047-0.422,0.076c-0.099,0.02-0.197,0.04-0.295,0.063c-0.133,0.033-0.264,0.071-0.396,0.111
		c-0.108,0.033-0.215,0.066-0.321,0.104c-0.116,0.041-0.231,0.087-0.346,0.134c-0.122,0.05-0.242,0.102-0.36,0.158
		c-0.05,0.024-0.101,0.041-0.15,0.066c-0.052,0.026-0.099,0.058-0.15,0.085c-0.122,0.065-0.243,0.133-0.362,0.204
		c-0.097,0.058-0.192,0.117-0.285,0.179c-0.109,0.072-0.216,0.148-0.321,0.227c-0.096,0.071-0.19,0.143-0.282,0.218
		c-0.094,0.077-0.186,0.158-0.276,0.24c-0.094,0.085-0.186,0.171-0.275,0.26c-0.081,0.081-0.159,0.166-0.237,0.251
		c-0.09,0.099-0.178,0.198-0.262,0.302c-0.068,0.084-0.134,0.17-0.199,0.257c-0.084,0.113-0.166,0.228-0.244,0.345
		c-0.057,0.086-0.112,0.174-0.166,0.263c-0.076,0.126-0.148,0.253-0.216,0.383c-0.025,0.048-0.055,0.092-0.08,0.141L111.5,354.73
		l-9.292-18.584c-0.024-0.049-0.054-0.093-0.08-0.141c-0.068-0.129-0.139-0.255-0.215-0.38c-0.055-0.091-0.111-0.18-0.169-0.268
		c-0.076-0.115-0.156-0.226-0.238-0.337c-0.067-0.091-0.136-0.181-0.207-0.268c-0.081-0.099-0.165-0.194-0.25-0.289
		c-0.082-0.09-0.164-0.179-0.25-0.265c-0.083-0.084-0.17-0.164-0.259-0.244c-0.097-0.088-0.194-0.174-0.295-0.256
		c-0.085-0.069-0.173-0.136-0.261-0.202c-0.113-0.084-0.227-0.165-0.344-0.243c-0.085-0.057-0.172-0.111-0.261-0.164
		c-0.128-0.077-0.257-0.15-0.389-0.219c-0.047-0.025-0.09-0.054-0.137-0.077c-0.045-0.022-0.091-0.038-0.136-0.06
		c-0.129-0.061-0.259-0.118-0.391-0.172c-0.105-0.043-0.21-0.084-0.316-0.122c-0.117-0.042-0.235-0.078-0.354-0.114
		c-0.121-0.036-0.242-0.072-0.364-0.102c-0.109-0.027-0.219-0.049-0.33-0.071c-0.129-0.026-0.257-0.051-0.386-0.07
		c-0.113-0.016-0.227-0.027-0.341-0.039c-0.125-0.012-0.249-0.025-0.373-0.031c-0.126-0.006-0.251-0.006-0.378-0.006
		c-0.112,0-0.223,0-0.335,0.005c-0.137,0.006-0.275,0.02-0.412,0.034c-0.102,0.01-0.203,0.02-0.303,0.034
		c-0.14,0.02-0.279,0.047-0.419,0.076c-0.1,0.02-0.199,0.04-0.298,0.064c-0.132,0.032-0.262,0.071-0.393,0.11
		c-0.109,0.033-0.217,0.067-0.324,0.105c-0.115,0.041-0.229,0.086-0.343,0.133c-0.123,0.05-0.244,0.103-0.364,0.159
		c-0.049,0.023-0.1,0.041-0.148,0.065c-0.052,0.026-0.098,0.057-0.148,0.084c-0.124,0.065-0.246,0.134-0.366,0.206
		c-0.095,0.057-0.189,0.116-0.281,0.177c-0.11,0.073-0.218,0.15-0.324,0.229c-0.094,0.07-0.188,0.141-0.279,0.215
		c-0.095,0.078-0.188,0.16-0.28,0.243c-0.093,0.084-0.184,0.168-0.271,0.256c-0.082,0.082-0.161,0.168-0.24,0.254
		c-0.089,0.098-0.176,0.196-0.259,0.298c-0.069,0.085-0.135,0.172-0.201,0.26c-0.084,0.112-0.165,0.226-0.242,0.343
		c-0.057,0.087-0.112,0.175-0.167,0.265c-0.076,0.126-0.148,0.253-0.216,0.382c-0.025,0.048-0.055,0.092-0.08,0.141L79.5,354.73
		l-9.292-18.584c-0.024-0.049-0.054-0.093-0.08-0.141c-0.068-0.129-0.139-0.255-0.215-0.38c-0.055-0.091-0.111-0.18-0.169-0.268
		c-0.076-0.115-0.156-0.226-0.238-0.337c-0.067-0.091-0.136-0.18-0.207-0.268c-0.081-0.099-0.165-0.194-0.251-0.289
		c-0.081-0.09-0.163-0.178-0.249-0.264c-0.084-0.084-0.172-0.165-0.26-0.246c-0.096-0.087-0.193-0.172-0.293-0.254
		c-0.086-0.07-0.174-0.137-0.264-0.204c-0.112-0.083-0.225-0.164-0.341-0.241c-0.086-0.057-0.174-0.112-0.263-0.166
		c-0.127-0.077-0.256-0.149-0.387-0.218c-0.047-0.025-0.09-0.054-0.138-0.078c-0.045-0.022-0.091-0.038-0.137-0.06
		c-0.128-0.061-0.259-0.118-0.39-0.171c-0.105-0.043-0.21-0.085-0.316-0.123c-0.117-0.042-0.235-0.078-0.354-0.114
		c-0.121-0.036-0.242-0.072-0.364-0.102c-0.109-0.027-0.219-0.049-0.33-0.071c-0.129-0.026-0.257-0.051-0.387-0.07
		c-0.113-0.016-0.227-0.027-0.34-0.039c-0.125-0.012-0.249-0.025-0.373-0.031c-0.126-0.006-0.252-0.006-0.378-0.006
		c-0.112,0-0.224,0-0.335,0.005c-0.137,0.006-0.274,0.02-0.412,0.034c-0.101,0.01-0.203,0.02-0.303,0.034
		c-0.14,0.02-0.279,0.047-0.419,0.076c-0.1,0.02-0.199,0.04-0.298,0.064c-0.131,0.032-0.261,0.07-0.392,0.11
		c-0.109,0.033-0.218,0.067-0.326,0.105c-0.115,0.041-0.228,0.086-0.341,0.132c-0.124,0.05-0.245,0.104-0.366,0.16
		c-0.049,0.023-0.099,0.04-0.147,0.065c-0.051,0.026-0.097,0.057-0.147,0.083c-0.125,0.066-0.247,0.135-0.368,0.208
		c-0.095,0.057-0.188,0.115-0.279,0.175c-0.111,0.074-0.219,0.151-0.327,0.231c-0.094,0.07-0.186,0.14-0.276,0.214
		c-0.096,0.079-0.189,0.161-0.282,0.245c-0.092,0.083-0.183,0.167-0.27,0.255c-0.082,0.082-0.162,0.168-0.24,0.255
		c-0.089,0.097-0.175,0.196-0.258,0.297c-0.07,0.085-0.136,0.173-0.202,0.262c-0.083,0.112-0.164,0.225-0.241,0.342
		c-0.057,0.087-0.112,0.175-0.167,0.265c-0.076,0.126-0.148,0.253-0.216,0.382c-0.025,0.048-0.055,0.092-0.08,0.141L47.5,354.73
		l-9.292-18.584c-0.024-0.049-0.054-0.093-0.08-0.141c-0.068-0.129-0.139-0.255-0.215-0.38c-0.055-0.091-0.111-0.18-0.169-0.268
		c-0.076-0.115-0.156-0.226-0.238-0.337c-0.067-0.091-0.136-0.18-0.207-0.268c-0.081-0.099-0.165-0.194-0.251-0.289
		c-0.081-0.09-0.163-0.178-0.249-0.264c-0.084-0.084-0.172-0.165-0.26-0.246c-0.096-0.087-0.193-0.172-0.293-0.254
		c-0.086-0.07-0.174-0.137-0.264-0.204c-0.112-0.083-0.225-0.164-0.341-0.241c-0.086-0.057-0.174-0.112-0.263-0.166
		c-0.127-0.077-0.256-0.149-0.387-0.218c-0.047-0.025-0.09-0.054-0.138-0.078c-0.045-0.023-0.092-0.039-0.137-0.06
		c-0.128-0.061-0.257-0.117-0.388-0.17c-0.107-0.044-0.213-0.086-0.321-0.124c-0.115-0.041-0.23-0.077-0.346-0.112
		c-0.124-0.038-0.248-0.074-0.373-0.105c-0.105-0.026-0.211-0.047-0.317-0.068c-0.134-0.027-0.267-0.053-0.401-0.072
		c-0.107-0.016-0.215-0.026-0.322-0.037c-0.131-0.013-0.262-0.026-0.393-0.032c-0.118-0.006-0.236-0.005-0.355-0.005
		c-0.12,0-0.24,0-0.359,0.005c-0.13,0.006-0.259,0.019-0.389,0.032c-0.109,0.011-0.217,0.021-0.325,0.037
		c-0.134,0.019-0.267,0.045-0.4,0.072c-0.106,0.021-0.212,0.042-0.317,0.068c-0.126,0.031-0.25,0.068-0.375,0.105
		c-0.115,0.035-0.229,0.07-0.343,0.111c-0.109,0.039-0.218,0.082-0.326,0.126c-0.128,0.052-0.255,0.107-0.381,0.167
		c-0.047,0.022-0.094,0.039-0.141,0.062c-0.049,0.025-0.094,0.055-0.143,0.08c-0.128,0.067-0.253,0.138-0.377,0.213
		c-0.092,0.056-0.183,0.112-0.272,0.171c-0.113,0.075-0.224,0.154-0.333,0.235c-0.092,0.069-0.183,0.138-0.271,0.21
		c-0.097,0.08-0.192,0.163-0.285,0.248c-0.091,0.083-0.181,0.166-0.268,0.253c-0.083,0.083-0.163,0.169-0.242,0.257
		c-0.088,0.097-0.175,0.195-0.257,0.296c-0.07,0.086-0.137,0.174-0.203,0.263c-0.083,0.112-0.164,0.225-0.24,0.34
		c-0.058,0.087-0.113,0.176-0.167,0.266c-0.076,0.125-0.147,0.252-0.216,0.381c-0.025,0.048-0.055,0.092-0.08,0.141L18.865,348H7.5
		c-4.142,0-7.5,3.358-7.5,7.5s3.358,7.5,7.5,7.5h16c2.841,0,5.438-1.605,6.708-4.146l1.292-2.584l9.292,18.584
		c0.017,0.034,0.04,0.064,0.058,0.098c0.148,0.285,0.307,0.564,0.491,0.829c0.002,0.002,0.003,0.005,0.005,0.008
		c0.179,0.258,0.38,0.5,0.592,0.735c0.057,0.063,0.115,0.123,0.173,0.183c0.174,0.18,0.358,0.352,0.552,0.516
		c0.05,0.042,0.097,0.088,0.148,0.129c0.234,0.187,0.481,0.36,0.741,0.521c0.073,0.045,0.149,0.084,0.224,0.126
		c0.123,0.07,0.242,0.145,0.37,0.209c0.069,0.034,0.139,0.057,0.208,0.089c0.117,0.054,0.236,0.104,0.356,0.153
		c0.192,0.077,0.385,0.145,0.58,0.206c0.105,0.033,0.209,0.066,0.316,0.094c0.229,0.06,0.458,0.105,0.688,0.143
		c0.083,0.014,0.165,0.032,0.248,0.043c0.317,0.041,0.635,0.066,0.951,0.066c0.002,0,0.004,0,0.006,0s0.004,0,0.006,0
		c0.316,0,0.634-0.025,0.951-0.066c0.083-0.011,0.165-0.029,0.248-0.043c0.23-0.038,0.46-0.083,0.689-0.143
		c0.106-0.028,0.209-0.061,0.314-0.093c0.196-0.061,0.391-0.129,0.584-0.207c0.118-0.047,0.235-0.097,0.351-0.15
		c0.07-0.032,0.142-0.056,0.211-0.091c0.13-0.065,0.251-0.141,0.376-0.212c0.072-0.041,0.146-0.078,0.216-0.122
		c0.261-0.161,0.51-0.336,0.745-0.524c0.049-0.039,0.094-0.083,0.143-0.124c0.196-0.165,0.382-0.339,0.558-0.522
		c0.057-0.059,0.114-0.118,0.169-0.179c0.213-0.236,0.415-0.479,0.594-0.738c0-0.001,0.001-0.002,0.002-0.003
		c0.185-0.266,0.345-0.546,0.494-0.833c0.018-0.034,0.041-0.063,0.058-0.098L63.5,356.27l9.292,18.584
		c0.017,0.034,0.04,0.064,0.058,0.098c0.148,0.285,0.307,0.564,0.491,0.829c0.002,0.002,0.003,0.005,0.005,0.008
		c0.179,0.258,0.38,0.5,0.592,0.735c0.057,0.063,0.115,0.123,0.173,0.183c0.174,0.18,0.358,0.352,0.552,0.516
		c0.05,0.042,0.097,0.088,0.148,0.129c0.234,0.187,0.481,0.36,0.741,0.521c0.073,0.045,0.149,0.084,0.224,0.126
		c0.123,0.07,0.242,0.145,0.37,0.209c0.069,0.034,0.139,0.057,0.208,0.089c0.117,0.054,0.236,0.104,0.356,0.153
		c0.192,0.077,0.385,0.145,0.58,0.206c0.105,0.033,0.209,0.066,0.316,0.094c0.229,0.06,0.458,0.105,0.688,0.143
		c0.083,0.014,0.165,0.032,0.248,0.043c0.317,0.041,0.635,0.066,0.951,0.066c0.002,0,0.004,0,0.006,0s0.004,0,0.006,0
		c0.316,0,0.634-0.025,0.951-0.066c0.083-0.011,0.165-0.029,0.248-0.043c0.23-0.038,0.46-0.083,0.689-0.143
		c0.106-0.028,0.209-0.061,0.314-0.093c0.196-0.061,0.391-0.129,0.584-0.207c0.118-0.047,0.235-0.097,0.351-0.15
		c0.07-0.032,0.142-0.056,0.211-0.091c0.13-0.065,0.251-0.141,0.376-0.212c0.072-0.041,0.146-0.078,0.216-0.122
		c0.261-0.161,0.51-0.336,0.745-0.524c0.049-0.039,0.094-0.083,0.143-0.124c0.196-0.165,0.382-0.339,0.558-0.522
		c0.057-0.059,0.114-0.118,0.169-0.179c0.213-0.236,0.415-0.479,0.594-0.738c0-0.001,0.001-0.002,0.002-0.003
		c0.185-0.266,0.345-0.546,0.494-0.833c0.018-0.034,0.041-0.063,0.058-0.098L95.5,356.27l9.292,18.584
		c0.017,0.034,0.04,0.064,0.058,0.098c0.148,0.285,0.307,0.564,0.491,0.829c0.002,0.002,0.003,0.005,0.005,0.008
		c0.179,0.258,0.38,0.5,0.592,0.735c0.057,0.063,0.115,0.123,0.173,0.183c0.174,0.18,0.358,0.352,0.552,0.516
		c0.05,0.042,0.097,0.088,0.148,0.129c0.234,0.187,0.481,0.36,0.741,0.521c0.073,0.045,0.149,0.084,0.224,0.126
		c0.123,0.07,0.242,0.145,0.37,0.209c0.069,0.034,0.139,0.057,0.208,0.089c0.117,0.054,0.236,0.104,0.356,0.153
		c0.192,0.077,0.385,0.145,0.58,0.206c0.105,0.033,0.209,0.066,0.316,0.094c0.229,0.06,0.458,0.105,0.688,0.143
		c0.083,0.014,0.165,0.032,0.248,0.043c0.317,0.041,0.635,0.066,0.951,0.066c0.002,0,0.004,0,0.006,0s0.004,0,0.006,0
		c0.316,0,0.634-0.025,0.951-0.066c0.083-0.011,0.165-0.029,0.248-0.043c0.23-0.038,0.46-0.083,0.689-0.143
		c0.106-0.028,0.209-0.061,0.314-0.093c0.196-0.061,0.391-0.129,0.584-0.207c0.118-0.047,0.235-0.097,0.351-0.15
		c0.07-0.032,0.142-0.056,0.211-0.091c0.13-0.065,0.251-0.141,0.376-0.212c0.072-0.041,0.146-0.078,0.216-0.122
		c0.261-0.161,0.51-0.336,0.745-0.524c0.049-0.039,0.094-0.083,0.143-0.124c0.196-0.165,0.382-0.339,0.558-0.522
		c0.057-0.059,0.114-0.118,0.169-0.179c0.213-0.236,0.415-0.479,0.594-0.738c0-0.001,0.001-0.002,0.002-0.003
		c0.185-0.266,0.345-0.546,0.494-0.833c0.018-0.034,0.041-0.063,0.058-0.098l9.292-18.584l1.292,2.584
		c0.011,0.021,0.025,0.04,0.036,0.061c0.148,0.289,0.311,0.568,0.493,0.833c0.034,0.05,0.072,0.095,0.107,0.143
		c0.148,0.205,0.307,0.401,0.475,0.59c0.064,0.072,0.127,0.144,0.194,0.213c0.204,0.212,0.417,0.415,0.644,0.602
		c0.044,0.036,0.091,0.067,0.136,0.102c0.201,0.158,0.41,0.304,0.626,0.441c0.071,0.045,0.143,0.088,0.215,0.131
		c0.245,0.143,0.497,0.276,0.758,0.391c0.018,0.008,0.034,0.017,0.052,0.025c0.287,0.124,0.585,0.227,0.89,0.315
		c0.061,0.018,0.122,0.031,0.183,0.047c0.24,0.063,0.483,0.113,0.731,0.152c0.082,0.013,0.163,0.027,0.246,0.038
		c0.283,0.035,0.571,0.057,0.863,0.059c0.021,0,0.042,0.004,0.064,0.004c0.009,0,0.017-0.001,0.026-0.001h40.864
		c3.761,35.913,34.212,64,71.105,64h192c39.425,0,71.5-32.075,71.5-71.5v-264C511,87.358,507.642,84,503.5,84z M439.5,412h-192
		c-31.154,0-56.5-25.346-56.5-56.5s25.346-56.5,56.5-56.5h192c31.154,0,56.5,25.346,56.5,56.5S470.654,412,439.5,412z M439.5,284
		H423V155.5c0-31.154,25.346-56.5,56.5-56.5H496v212.759C482.909,294.888,462.458,284,439.5,284z"/>
	<path d="M295.5,348H271v-24.5c0-4.142-3.358-7.5-7.5-7.5s-7.5,3.358-7.5,7.5V348h-24.5c-4.142,0-7.5,3.358-7.5,7.5
		s3.358,7.5,7.5,7.5H256v24.5c0,4.142,3.358,7.5,7.5,7.5s7.5-3.358,7.5-7.5V363h24.5c4.142,0,7.5-3.358,7.5-7.5
		S299.642,348,295.5,348z"/>
	<path d="M463.5,348c-4.142,0-7.5,3.358-7.5,7.5c0,9.098-7.402,16.5-16.5,16.5s-16.5-7.402-16.5-16.5s7.402-16.5,16.5-16.5
		c4.142,0,7.5-3.358,7.5-7.5s-3.358-7.5-7.5-7.5c-17.369,0-31.5,14.131-31.5,31.5s14.131,31.5,31.5,31.5s31.5-14.131,31.5-31.5
		C471,351.358,467.642,348,463.5,348z"/>
	<path d="M471.5,148c-4.142,0-7.5,3.358-7.5,7.5v112c0,4.142,3.358,7.5,7.5,7.5s7.5-3.358,7.5-7.5v-112
		C479,151.358,475.642,148,471.5,148z"/>
</g>
<g>
</g>
<g>
</g>
<g>
</g>
<g>
</g>
<g>
</g>
<g>
</g>
<g>
</g>
<g>
</g>
<g>
</g>
<g>
</g>
<g>
</g>
<g>
</g>
<g>
</g>
<g>
</g>
<g>
</g>
</svg>
