<svg xmlns="http://www.w3.org/2000/svg" version="1.1" xmlns:xlink="http://www.w3.org/1999/xlink" width="443.877px" height="434.169px"><svg xmlns="http://www.w3.org/2000/svg" viewBox="238.6889 -111.2393 443.877 434.1693" width="443.877px" height="434.169px">
  <path d="M1071.49 325.42C1069.79 310.703 1066.2 297.14 1060.73 284.727L1060.1 285.092C1062.59 282.961 1065.04 280.732 1067.43 278.34C1069.61 276.165 1071.61 273.911 1073.58 271.642L1073.53 271.731C1085.62 277.013 1099.15 280.653 1114.13 282.65L1123.32 266.735C1114.55 254.918 1104.72 245.029 1093.87 237.044C1095.88 231.323 1097.43 225.404 1098.48 219.284V220.068C1111.59 218.598 1125.13 214.983 1139.1 209.223V190.841C1125.5 184.962 1111.96 181.283 1098.48 179.813V180.178C1097.44 173.909 1095.84 167.883 1093.78 162.038C1104.24 154.255 1114.03 144.475 1123.13 132.653L1113.94 116.733C1099.3 118.429 1085.8 121.995 1073.44 127.42C1071.54 125.236 1069.54 123.095 1067.43 120.994C1065.32 118.883 1063.18 116.876 1060.99 114.972L1061.17 115.076C1066.45 102.987 1070.09 89.4539 1072.09 74.4754L1056.18 65.2821C1044.37 74.0463 1034.5 83.856 1026.52 94.6867C1020.69 92.6153 1014.66 91.0025 1008.39 89.9569C1006.91 76.8921 1003.31 63.408 997.574 49.4899H979.192C973.318 63.0824 969.639 76.6159 968.169 90.0851C962.453 91.0913 956.919 92.5462 951.558 94.4056C943.741 83.8166 933.862 73.9279 921.922 64.7297L906.001 73.923C907.708 88.645 911.293 102.208 916.763 114.617L916.871 114.553C914.499 116.59 912.166 118.72 909.893 120.994C907.693 123.189 905.686 125.467 903.713 127.761C891.644 122.498 878.135 118.863 863.192 116.871L853.998 132.796C862.792 144.633 872.631 154.541 883.511 162.536C881.548 168.188 880.044 174.043 879.013 180.084V179.27C865.899 180.735 852.361 184.35 838.393 190.111V208.493C851.996 214.372 865.529 218.051 879.013 219.521V219.17C880.064 225.552 881.706 231.693 883.817 237.636C873.243 245.448 863.364 255.317 854.181 267.243L863.374 283.163C878.096 281.452 891.659 277.871 904.068 272.401L903.481 271.39C905.508 273.753 907.634 276.081 909.898 278.345C912.689 281.136 915.589 283.686 918.529 286.117L915.959 284.633C910.677 296.726 907.037 310.255 905.044 325.233L920.965 334.421C932.856 325.578 942.809 315.69 950.823 304.75L950.138 304.356C956.125 306.531 962.31 308.232 968.746 309.332C970.221 322.407 973.831 335.916 979.572 349.844H997.953C1003.82 336.271 1007.49 322.757 1008.97 309.303C1014.81 308.297 1020.45 306.812 1025.92 304.903C1033.74 315.502 1043.63 325.401 1055.58 334.604L1071.49 325.42ZM1031.4 242.336C1019.6 254.148 1005.39 260.052 988.755 260.052C972.12 260.052 957.901 254.148 946.108 242.336C934.286 230.529 928.378 216.31 928.378 199.674C928.378 183.039 934.286 168.81 946.108 157.012C957.901 145.2 972.12 139.297 988.755 139.297C1005.39 139.297 1019.6 145.2 1031.4 157.012C1043.22 168.81 1049.13 183.039 1049.13 199.674C1049.13 216.31 1043.22 230.529 1031.4 242.336ZM1249.25 145.925C1249.79 142.586 1250.01 139.321 1250.01 136.106C1261.08 130.197 1271.84 122.429 1282.27 112.659L1275.77 95.466C1261.6 94.8051 1248.21 96.0726 1235.58 99.1551C1231.4 94.4302 1226.68 90.5981 1221.42 87.6389C1221.87 75.0278 1220.51 61.7459 1217.24 47.7489L1199.11 44.7847C1191.46 56.7103 1185.86 68.9219 1182.22 81.39C1176.12 82.6033 1170.28 84.8967 1164.7 88.2455C1154.06 81.6317 1141.97 76.2065 1128.32 72.0636L1116.68 86.2924C1123.19 98.8789 1130.96 109.823 1139.94 119.214C1139.08 121.946 1138.35 124.757 1137.87 127.716C1137.33 131.06 1137.1 134.325 1137.1 137.536C1126.03 143.444 1115.27 151.212 1104.84 160.978L1111.35 178.171C1125.47 178.832 1138.82 177.569 1151.42 174.511C1155.67 179.315 1160.51 183.191 1165.91 186.165C1165.5 198.678 1166.85 211.851 1170.09 225.73L1188.23 228.694C1195.86 216.788 1201.45 204.606 1205.09 192.168C1211.02 190.945 1216.7 188.686 1222.15 185.421C1232.84 192.104 1245.02 197.568 1258.77 201.741L1270.41 187.512C1263.9 174.916 1256.11 163.967 1247.12 154.566C1248.01 151.799 1248.76 148.944 1249.25 145.925ZM1213.48 140.081C1212.59 145.57 1209.87 149.94 1205.33 153.2C1200.8 156.455 1195.79 157.644 1190.31 156.751C1184.81 155.853 1180.44 153.136 1177.19 148.603C1173.92 144.066 1172.74 139.06 1173.63 133.571C1174.53 128.081 1177.25 123.697 1181.78 120.442C1186.32 117.182 1191.33 116.008 1196.81 116.905C1202.31 117.803 1206.68 120.506 1209.94 125.038C1213.2 129.571 1214.38 134.587 1213.48 140.081ZM1221.05 326.244C1228.88 316.193 1235.61 304.499 1241.2 291.079L1228.2 278.078C1214.91 283.346 1203.14 290.063 1192.83 298.151C1186.93 294.699 1180.65 292.129 1174.02 290.448C1172.44 277.817 1168.95 264.806 1163.41 251.386H1145.03C1139.37 264.481 1135.8 277.511 1134.23 290.497C1127.54 292.218 1121.21 294.847 1115.27 298.368C1105.26 290.615 1093.64 283.928 1080.32 278.379L1067.32 291.38C1072.55 304.583 1079.21 316.272 1087.23 326.535C1083.7 332.582 1081.08 339.003 1079.39 345.814C1066.91 347.422 1054.05 350.884 1040.8 356.354V374.736C1053.8 380.363 1066.74 383.899 1079.63 385.497C1081.39 392.249 1084.1 398.616 1087.71 404.609C1079.99 414.586 1073.33 426.166 1067.8 439.448L1080.8 452.449C1094.05 447.196 1105.78 440.509 1116.06 432.45C1122.06 435.897 1128.44 438.442 1135.19 440.08C1136.77 452.646 1140.26 465.603 1145.77 478.954H1164.15C1169.84 465.8 1173.42 452.706 1174.98 439.66C1181.56 437.895 1187.78 435.236 1193.63 431.71C1203.65 439.507 1215.31 446.215 1228.68 451.783L1241.68 438.783C1236.4 425.441 1229.66 413.634 1221.53 403.302C1224.89 397.442 1227.38 391.228 1229.02 384.654C1241.74 383.095 1254.85 379.579 1268.37 374.001V355.619C1255.12 349.883 1241.93 346.283 1228.8 344.744C1227.07 338.214 1224.49 332.049 1221.05 326.244ZM1181.78 392.93C1174.09 400.609 1164.86 404.426 1154.04 404.426C1143.22 404.426 1133.98 400.609 1126.31 392.93C1118.62 385.241 1114.78 375.978 1114.78 365.158C1114.78 354.342 1118.62 345.109 1126.31 337.43C1133.98 329.751 1143.22 325.904 1154.04 325.904C1164.86 325.904 1174.09 329.751 1181.78 337.43C1189.47 345.109 1193.31 354.342 1193.31 365.158C1193.31 375.983 1189.47 385.246 1181.78 392.93Z" fill="#358DE4" transform="matrix(1, 0, 0, 1, -599.7041015625, -156.0240478515625)"></path>
</svg><style>@media (prefers-color-scheme: light) { :root { filter: none; } }
@media (prefers-color-scheme: dark) { :root { filter: none; } }
</style></svg>