<?xml version="1.0"?>
<svg xmlns="http://www.w3.org/2000/svg" width="500" height="500" viewBox="0 0 24 24">
	<defs xmlns="http://www.w3.org/2000/svg">
		<linearGradient id="TL-FILL" x1="0%" y1="0%" x2="0%" y2="100%">
			<stop offset="0%" style="stop-color:#0000FF;stop-opacity:1"></stop>
			<stop offset="100%" style="stop-color:#FF00FF;stop-opacity:1"></stop>
		</linearGradient>
		<path id="V" d="M0 0 1.5 3H4.5L3 0Z M21 0 19.5 3H22.5L24 0Z M3 6 10.5 21V15L6 6Z M13.5 21 21 6H18L13.5 15Z"></path>
		<path id="TL" d="M0 3H24V6H13.5V21H24V24H10.5V6H0Z M1.5 3 3 6H6L4.5 3Z M19.5 3 18 6H21L22.5 3Z M12 24 13.5 21V15L12 18 10.5 15V21Z"></path><path id="E" d="M5 2H19V6H9V10H14V14H9V18H19V22H5Z"></path>
		<path id="AMP" d="M17.03 22.87 15.17 20.67C14.37 21.4 13.43 22 12.43 22.47 11.37 22.93 10.3 23.2 9.23 23.27 9.17 23.33 9.03 23.33 8.9 23.33S8.7 23.33 8.57 23.33C8.37 23.33 8.17 23.33 7.9 23.27 7.63 23.27 7.43 23.27 7.23 23.2 6.77 23.13 6.3 23 5.83 22.87 5.37 22.67 4.97 22.47 4.5 22.2 3.77 21.67 3.17 21 2.7 20.2 2.23 19.33 1.97 18.47 1.9 17.6 1.9 17.47 1.9 17.4 1.9 17.27S1.9 17.13 1.9 17C1.9 16.93 1.9 16.87 1.9 16.8 1.9 16.67 1.9 16.6 1.9 16.47 1.9 16.47 1.9 16.47 1.9 16.4 1.9 16.4 1.9 16.4 1.9 16.33 1.9 16.27 1.97 16.2 1.97 16.13 1.97 16.07 1.97 16.07 1.97 16 2.23 14.67 2.77 13.6 3.63 12.73 4.5 11.87 5.5 11.13 6.57 10.47 5.9 9.73 5.37 9 4.9 8.2 4.43 7.4 4.23 6.53 4.23 5.73 4.23 5.53 4.23 5.4 4.3 5.2 4.3 5 4.3 4.87 4.37 4.67 4.37 4.6 4.37 4.47 4.43 4.33 4.43 4.2 4.5 4.13 4.5 4 4.9 2.87 5.63 2 6.63 1.47 7.7.93 8.83.67 9.97.67 11.5.67 12.83 1.07 14.1 1.87 15.3 2.67 15.9 3.87 15.9 5.4V5.8C15.83 6.8 15.5 7.6 14.83 8.33 14.23 9 13.57 9.67 12.83 10.2 12.63 10.33 12.5 10.4 12.37 10.53 12.23 10.67 12.03 10.73 11.9 10.87L15.63 15.2 18.9 11.73 21.37 14.33 17.97 17.93 22.1 22.87H17.03V22.87Z M6.43 18.27C6.7 18.6 6.9 18.8 7.1 19 7.37 19.27 7.63 19.4 7.83 19.53 8.1 19.67 8.3 19.8 8.57 19.8S9.03 19.93 9.23 19.93C9.77 19.93 10.23 19.8 10.63 19.6 11.03 19.4 11.43 19.2 11.83 18.93 12.1 18.73 12.5 18.4 12.9 18L8.7 13C8.63 13.07 8.5 13.13 8.43 13.2 8.3 13.27 8.23 13.33 8.17 13.4 7.77 13.73 7.3 14.2 6.9 14.67 6.5 15.13 6.23 15.67 6.1 16.13 6.03 16.27 6.03 16.4 5.97 16.53 5.97 16.67 5.97 16.8 5.97 16.93 5.97 17.2 5.97 17.4 6.1 17.6S6.3 18.07 6.43 18.27V18.27Z M9.77 8.73C9.83 8.67 9.83 8.67 9.83 8.67 9.9 8.6 9.9 8.6 9.97 8.6 9.97 8.6 10.03 8.53 10.03 8.53 10.03 8.53 10.1 8.53 10.1 8.53 10.57 8.2 10.97 7.8 11.37 7.47 11.77 7.13 12.03 6.6 12.17 6.07V5.67C12.17 5 11.97 4.53 11.5 4.13 11.1 3.8 10.63 3.6 10.17 3.53 10.1 3.53 10.1 3.53 10.03 3.53 9.97 3.53 9.97 3.53 9.9 3.53 9.83 3.53 9.83 3.53 9.77 3.53 9.77 3.53 9.7 3.53 9.7 3.53 9.3 3.53 8.97 3.73 8.63 4 8.3 4.27 8.1 4.67 8.03 5.2 8.03 5.2 8.03 5.2 8.03 5.27 8.03 5.33 8.03 5.33 8.03 5.4 8.03 5.4 7.97 5.47 7.97 5.47 7.97 5.53 7.97 5.53 7.97 5.6 7.97 6.07 8.1 6.53 8.37 6.87 8.63 7.27 8.9 7.67 9.17 8.07 9.3 8.13 9.43 8.27 9.5 8.4 9.57 8.47 9.7 8.6 9.77 8.73V8.73Z"></path>
	</defs>
	<g xmlns="http://www.w3.org/2000/svg" stroke-opacity="0" fill-mode="evenodd">
		<use href="#TL" fill="url(#TL-FILL)" transform="scale(0.8) translate(2,0)"></use>
		<use href="#V" fill="#FF0000" transform="scale(0.8) translate(2,0)"></use>
		<g xmlns="http://www.w3.org/2000/svg" stroke-opacity="0" fill-mode="evenodd" transform="scale(0.5) translate(0,22)">
			<use href="#E" transform="translate(3,2)" fill="#FFFF00" opacity="0.8"></use>
			<use href="#E" transform="translate(21,-2)" fill="#00FF00" opacity="0.8"></use>
			<use href="#AMP" transform="translate(18,7) scale(0.5)" fill="#80C0FF" opacity="0.8"></use>
		</g>
	</g>
</svg>
